PathFileType	4	(X/Y/Z)	C:/Users/opensim2020/Desktop/walking_exp_matlab/subject03_walking12_straight_02.trc																																																																																																																																														
DataRate	CameraRate	NumFrames	NumMarkers	Units	OrigDataRate	OrigDataStartFrame	OrigNumFrames																																																																																																																																										
100	100	4	48	mm	100	1124	187																																																																																																																																										
Frame#	Time	LFHD			RFHD			LBHD			RBHD			C7			T10			CLAV			STRN			RBAK			LSHO			LUPA			LELB			LFRM			LWRA			LWRB			LFIN			RSHO			RUPA			RELB			RFRM			RWRA			RWRB			RFIN			LASI			RASI			LPSI			RPSI			LTHI			LKNE			LTIB			LANK			LHEE			LTOE			RTHI			RKNE			RTIB			RANK			RHEE			RTOE			*39			*40			*41			*42			*43			*44			*45			*46			*47		
		X1	Y1	Z1	X2	Y2	Z2	X3	Y3	Z3	X4	Y4	Z4	X5	Y5	Z5	X6	Y6	Z6	X7	Y7	Z7	X8	Y8	Z8	X9	Y9	Z9	X10	Y10	Z10	X11	Y11	Z11	X12	Y12	Z12	X13	Y13	Z13	X14	Y14	Z14	X15	Y15	Z15	X16	Y16	Z16	X17	Y17	Z17	X18	Y18	Z18	X19	Y19	Z19	X20	Y20	Z20	X21	Y21	Z21	X22	Y22	Z22	X23	Y23	Z23	X24	Y24	Z24	X25	Y25	Z25	X26	Y26	Z26	X27	Y27	Z27	X28	Y28	Z28	X29	Y29	Z29	X30	Y30	Z30	X31	Y31	Z31	X32	Y32	Z32	X33	Y33	Z33	X34	Y34	Z34	X35	Y35	Z35	X36	Y36	Z36	X37	Y37	Z37	X38	Y38	Z38	X39	Y39	Z39	X40	Y40	Z40	X41	Y41	Z41	X42	Y42	Z42	X43	Y43	Z43	X44	Y44	Z44	X45	Y45	Z45	X46	Y46	Z46	X47	Y47	Z47	X48	Y48	Z48
																																																																																																																																																	
24	0.23	-1067.03418	1597.42224	-1461.59656	-1087.57971	1599.55078	-1330.14954	-1192.6355	1548.89063	-1477.52808	-1207.66467	1550.53845	-1346.99646	-1226.33093	1389.70667	-1425.70398	-1262.36804	1078.17114	-1435.33008	-1104.60986	1312.86279	-1410.62561	-1059.87244	1147.98877	-1420.44788	-1292.15747	1210.36316	-1349.72961	-1131.58252	1357.5553	-1567.69983	-1086.77759	1182.27734	-1657.91589	-1032.58398	1076.26294	-1681.26355	-933.66394	995.62195	-1674.44849	-844.33557	923.92639	-1635.71753	-860.34338	910.26538	-1686.19678	-789.03674	871.08154	-1675.5874	-1178.10181	1332.61926	-1259.50256	-1213.4469	1112.00916	-1192.59668	-1213.62134	998.8241	-1178.59668	-1218.66638	861.59973	-1175.20349	-1198.37329	760.67517	-1204.22217	-1239.50415	762.39929	-1167.36255	-1237.396	686.42914	-1181.52124	-1098.35571	913.11676	-1551.63513	-1094.50317	915.12781	-1311.95398	-1259.53137	937.14862	-1493.68311	-1257.16357	937.92798	-1346.74341	-1213.56665	626.74561	-1600.50684	-1262.25391	451.90305	-1577.87634	-1401.0647	303.67175	-1584.0116	-1522.2395	128.92531	-1551.31946	-1574.42249	116.4468	-1515.41846	-1403.6875	33.58809	-1523.33191	-1064.2522	630.60309	-1268.6366	-983.42468	477.57867	-1317.13123	-970.96033	283.18271	-1318.16772	-935.073	71.92175	-1366.69324	-971.29163	36.81897	-1422.68469	-793.44769	49.92116	-1380.23401	-1158.46289	1654.39075	-1423.88623	NaN	NaN	NaN	NaN	NaN	NaN	NaN	NaN	NaN	NaN	NaN	NaN	NaN	NaN	NaN	NaN	NaN	NaN	NaN	NaN	NaN	NaN	NaN	NaN
25	0.24	-1053.65479	1598.42114	-1461.92712	-1073.88013	1600.67041	-1330.52515	-1179.30225	1549.83582	-1477.50476	-1193.86035	1551.61841	-1346.91492	-1212.83533	1390.12976	-1425.15552	-1247.22839	1078.47974	-1435.04944	-1090.7301	1313.96118	-1410.49353	-1044.95117	1149.39197	-1420.17517	-1277.54858	1210.36694	-1349.26367	-1118.6123	1358.33923	-1567.64294	-1074.9137	1182.63782	-1658.09229	-1021.15143	1076.64758	-1681.69556	-921.01489	998.34515	-1674.13013	-830.12756	929.57581	-1634.47644	-845.83673	914.39032	-1684.51343	-773.30865	877.86517	-1673.39063	-1163.88904	1333.43945	-1259.10583	-1198.77051	1113.03235	-1191.71533	-1198.62463	999.52936	-1177.98901	-1203.71021	862.39307	-1174.5647	-1183.64099	761.49976	-1204.04089	-1224.25793	763.06812	-1166.73022	-1222.6217	687.25635	-1181.26648	-1082.43542	913.24152	-1550.86206	-1078.85339	916.44958	-1311.24463	-1243.73816	936.98083	-1493.11353	-1241.16956	938.76282	-1346.01477	-1195.65869	626.06598	-1600.89075	-1243.33521	450.64514	-1579.93164	-1387.19189	306.66614	-1585.05237	-1514.10339	136.92758	-1551.66992	-1566.15674	127.67825	-1515.31323	-1402.65186	33.46262	-1523.21851	-1049.37964	632.1217	-1268.2439	-968.59528	478.79749	-1316.58459	-959.12653	284.09171	-1316.98816	-928.79779	71.47547	-1365.72644	-968.2063	38.91161	-1420.62329	-788.06213	45.6604	-1381.50842	-1145.12927	1655.43115	-1424.20557	NaN	NaN	NaN	NaN	NaN	NaN	NaN	NaN	NaN	NaN	NaN	NaN	NaN	NaN	NaN	NaN	NaN	NaN	NaN	NaN	NaN	NaN	NaN	NaN
26	0.25	-1040.21619	1599.53052	-1462.20496	-1059.9624	1601.93323	-1330.78052	-1166.0155	1551.21057	-1477.56104	-1180.25696	1553.12854	-1346.9292	-1199.15381	1390.94604	-1424.50024	-1232.14819	1078.97986	-1434.80029	-1076.74011	1315.43848	-1410.27783	-1030.45068	1150.86108	-1419.69873	-1262.95557	1210.81677	-1348.32983	-1105.73669	1359.42517	-1567.55652	-1063.26526	1183.24792	-1658.1969	-1010.14502	1077.16748	-1682.02771	-909.04089	1000.75793	-1673.77698	-816.81219	934.65387	-1633.26453	-832.30042	918.05756	-1682.91589	-758.68872	884.11407	-1671.33411	-1149.50586	1334.65308	-1258.75806	-1183.47144	1113.98108	-1190.9884	-1183.24561	1000.57928	-1177.2738	-1188.0376	863.3877	-1174.05933	-1168.43384	762.54572	-1204.32483	-1208.40173	764.05804	-1166.02466	-1206.77563	688.20599	-1180.83142	-1066.495	913.68121	-1549.88391	-1063.14282	918.01709	-1310.46814	-1227.80969	937.05609	-1492.44458	-1225.23669	940.22345	-1345.16956	-1176.83398	625.34167	-1601.1925	-1222.69531	449.23407	-1582.35876	-1371.35388	309.79874	-1586.10364	-1504.08582	145.30087	-1551.349	-1555.60266	139.82362	-1514.50708	-1401.43481	33.32463	-1522.99109	-1036.62634	632.53339	-1267.6908	-954.09039	479.54013	-1315.85254	-947.63	284.85425	-1315.92188	-924.24762	71.60214	-1365.36084	-966.00989	40.38844	-1419.61389	-784.26764	42.41837	-1380.00964	NaN	NaN	NaN	NaN	NaN	NaN	NaN	NaN	NaN	NaN	NaN	NaN	NaN	NaN	NaN	NaN	NaN	NaN	NaN	NaN	NaN	NaN	NaN	NaN	NaN	NaN	NaN
27	0.26	-1026.79797	1600.76672	-1462.45264	-1046.276	1603.4115	-1330.95386	-1152.61536	1552.62366	-1477.43689	-1166.62927	1554.71472	-1346.87488	-1185.44788	1392.06702	-1423.92395	-1217.23889	1079.7052	-1434.07715	-1062.81226	1317.01367	-1410.13208	-1015.81281	1152.64832	-1419.26855	-1248.36121	1211.57898	-1347.10632	-1092.87219	1360.71289	-1567.41492	-1051.74182	1184.03149	-1658.09949	-999.44672	1077.74524	-1682.11218	-897.76031	1002.97089	-1673.40527	-804.49683	939.28394	-1632.18652	-819.80457	921.24335	-1681.34119	-745.46149	889.88715	-1669.58923	-1135.2124	1335.99084	-1258.33716	-1168.16418	1115.38989	-1190.32068	-1167.44641	1001.92719	-1176.67969	-1171.90588	864.74469	-1173.5061	-1151.96924	764.13824	-1203.77673	-1191.8075	765.29126	-1165.34497	-1189.96899	689.44324	-1180.18652	-1050.60168	914.4137	-1548.76477	-1047.57617	919.94495	-1309.72351	-1211.97571	937.36438	-1491.85046	-1209.46411	942.00031	-1344.44885	-1157.28552	624.5213	-1601.64514	-1200.55823	447.73999	-1585.1217	-1353.74597	312.85547	-1586.92957	-1492.38757	154.73369	-1551.15796	-1542.23792	152.56783	-1512.96448	-1399.89624	33.19333	-1522.66492	-1024.60767	632.67157	-1267.09595	-940.14886	480.07043	-1315.38525	-937.22437	285.34131	-1315.05396	-922.91876	71.69373	-1365.9364	-965.23444	40.70635	-1419.9126	-782.62311	40.47743	-1378.95313	-1118.41052	1658.78516	-1424.69226	NaN	NaN	NaN	NaN	NaN	NaN	NaN	NaN	NaN	NaN	NaN	NaN	NaN	NaN	NaN	NaN	NaN	NaN	NaN	NaN	NaN	NaN	NaN	NaN
